<?xml version="1.0" encoding="utf-8"?>
<!-- Source style: SVG Repo phone-call icon, simplified for AvanTech contact cards -->
<svg width="24" height="24" viewBox="0 0 24 24" fill="none" xmlns="http://www.w3.org/2000/svg">
  <path d="M18.5 21C9.94 21 3 14.06 3 5.5c0-.39.01-.77.04-1.15.03-.43.05-.65.16-.85.1-.16.27-.32.44-.4C3.84 3 4.08 3 4.56 3h2.82c.4 0 .6 0 .78.07.15.06.29.15.39.27.12.14.2.33.33.71l1.17 3.21c.16.44.24.66.23.87-.02.18-.08.36-.19.51-.12.18-.32.3-.72.54L8 10c1.2 2.65 3.35 4.8 6 6l.82-1.37c.24-.4.36-.6.53-.72.16-.11.34-.17.52-.19.21-.01.43.07.87.23l3.21 1.17c.38.13.57.2.71.33.12.1.21.24.27.39.07.18.07.38.07.78v2.82c0 .48 0 .72-.1.92-.08.17-.24.34-.4.44-.2.11-.42.13-.85.16-.38.03-.76.04-1.15.04Z" stroke="#000" stroke-width="2" stroke-linecap="round" stroke-linejoin="round"/>
</svg>
